<svg width="7" height="14" viewBox="0 0 7 14" fill="none" xmlns="http://www.w3.org/2000/svg">
<path d="M2.09047 10.4277C1.95757 10.4277 1.84396 10.3816 1.74963 10.2894C1.65531 10.1972 1.60815 10.0847 1.60815 9.9518C1.60815 9.81889 1.65746 9.70314 1.75607 9.60453L4.35417 7.01286L1.75607 4.42119C1.65746 4.32258 1.60815 4.20683 1.60815 4.07392C1.60815 3.94101 1.65531 3.82847 1.74963 3.7363C1.84396 3.64412 1.95757 3.59803 2.09047 3.59803C2.21481 3.59803 2.32628 3.64305 2.42488 3.73308L5.35739 6.65273C5.46029 6.74705 5.51173 6.86709 5.51173 7.01286C5.51173 7.15005 5.46029 7.2701 5.35739 7.37299L2.42488 10.2926C2.33485 10.3827 2.22338 10.4277 2.09047 10.4277Z" fill="#0066CC"/>
</svg>
