<svg width="12" height="13" viewBox="0 0 12 13" fill="none" xmlns="http://www.w3.org/2000/svg">
<mask id="mask0_2_36" style="mask-type:alpha" maskUnits="userSpaceOnUse" x="0" y="0" width="12" height="13">
<g clip-path="url(#clip0_2_36)">
<path d="M2.99994 9.98025V3.69225C2.98455 3.57007 2.99545 3.446 3.03192 3.32837C3.06839 3.21074 3.12958 3.10226 3.2114 3.01022C3.29322 2.91817 3.39377 2.84468 3.50632 2.79467C3.61886 2.74466 3.74079 2.71929 3.86394 2.72025C4.10004 2.71018 4.33324 2.77531 4.52994 2.90625L9.64794 5.90625C10.1039 6.17025 10.3499 6.38625 10.3499 6.81225C10.3499 7.23825 10.1039 7.45425 9.64794 7.71825L4.52994 10.7183C4.33324 10.8492 4.10004 10.9143 3.86394 10.9043C3.74473 10.9064 3.6264 10.8834 3.5166 10.8369C3.40681 10.7904 3.308 10.7214 3.22656 10.6343C3.14513 10.5472 3.08288 10.444 3.04384 10.3313C3.0048 10.2187 2.98985 10.0991 2.99994 9.98025Z" fill="black"/>
</g>
</mask>
<g mask="url(#mask0_2_36)">
<rect y="0.830078" width="12" height="12" fill="black"/>
</g>
<defs>
<clipPath id="clip0_2_36">
<rect width="12" height="12" fill="white" transform="translate(0 0.830078)"/>
</clipPath>
</defs>
</svg>
