<svg width="59" height="15" viewBox="0 0 59 15" fill="none" xmlns="http://www.w3.org/2000/svg">
<path d="M24.7387 14.5918V5.2358H24.6778L20.8458 14.5918H19.384L15.5398 5.2358H15.4789V14.5918H13.6813V1.87934H15.9627L20.0766 12.0096H20.148L24.2532 1.87934H26.5433V14.5918H24.7387ZM36.4818 14.5918H34.6581V13.024H34.6146C34.1029 14.1342 33.1615 14.7588 31.7432 14.7588C29.7262 14.7588 28.4924 13.4469 28.4924 11.3223V5.3228H30.3962V10.9517C30.3962 12.3611 31.0662 13.118 32.3784 13.118C33.7532 13.118 34.5815 12.1662 34.5815 10.722V5.3228H36.4853L36.4818 14.5918ZM41.6973 5.15576C43.8552 5.15576 45.2561 6.35462 45.3188 8.0633H43.5298C43.4237 7.16546 42.7641 6.6017 41.6973 6.6017C40.6671 6.6017 39.9797 7.10456 39.9797 7.84406C39.9797 8.42522 40.4026 8.82194 41.4067 9.05162L42.9138 9.3944C44.8089 9.83462 45.5311 10.5741 45.5311 11.9139C45.5311 13.6052 43.9544 14.7675 41.7687 14.7675C39.4507 14.7675 38.0585 13.6313 37.8827 11.8687H39.7692C39.9449 12.8379 40.6062 13.3129 41.7687 13.3129C42.9138 13.3129 43.6186 12.8379 43.6186 12.0792C43.6186 11.4807 43.2757 11.1274 42.2612 10.8978L40.7541 10.5463C38.9913 10.1409 38.1194 9.29522 38.1194 7.94672C38.1194 6.29198 39.5655 5.15576 41.6973 5.15576ZM46.8606 2.88332C46.8484 2.27258 47.334 1.76798 47.9448 1.7558C48.5556 1.74362 49.0603 2.22908 49.0725 2.83982C49.0846 3.45056 48.5991 3.95516 47.9883 3.96734C47.9796 3.96734 47.9709 3.96734 47.9622 3.96734C47.3583 3.97082 46.8658 3.4871 46.8606 2.88332ZM47.0103 5.3228H48.9141V14.59H47.0103V5.3228ZM56.947 8.51222C56.7539 7.52564 56.0125 6.7409 54.7717 6.7409C53.2995 6.7409 52.3319 7.96586 52.3319 9.95642C52.3319 11.9922 53.3099 13.1719 54.7909 13.1719C55.9621 13.1719 56.7295 12.5281 56.9488 11.4546H58.7812C58.5776 13.4277 57.001 14.7675 54.7717 14.7675C52.1196 14.7675 50.3933 12.9527 50.3933 9.95816C50.3933 7.01582 52.1196 5.1575 54.7543 5.1575C57.1419 5.1575 58.595 6.69044 58.7638 8.51396L56.947 8.51222ZM7.63741 3.11996C8.15252 2.504 8.40833 1.7123 8.35091 0.910156C7.56084 0.984976 6.82994 1.36256 6.31309 1.9646C5.87107 2.47442 5.48125 3.30614 5.58219 4.08914C6.36355 4.157 7.14492 3.69764 7.63741 3.11996ZM8.34046 4.24052C7.20583 4.17266 6.24 4.88432 5.69878 4.88432C5.15583 4.88432 4.32574 4.27358 3.42951 4.29098C2.24093 4.32056 1.1585 4.97828 0.584225 6.0188C-0.635681 8.12072 0.262281 11.2388 1.44912 12.9492C2.02514 13.7966 2.7195 14.7292 3.63312 14.6944C4.49802 14.6614 4.83563 14.1342 5.88673 14.1342C6.93609 14.1342 7.24063 14.6944 8.156 14.677C9.10443 14.6596 9.69785 13.8297 10.2739 12.9823C10.6828 12.382 11.0013 11.726 11.2223 11.0335C11.2049 11.0161 9.39331 10.3218 9.37591 8.2373C9.3585 6.49208 10.7994 5.6621 10.8655 5.6099C10.0529 4.41104 8.78248 4.27532 8.34046 4.24052Z" fill="black"/>
</svg>
