<svg width="78" height="15" viewBox="0 0 78 15" fill="none" xmlns="http://www.w3.org/2000/svg">
<path d="M13.667 14.5805V1.89492H21.5881V3.59131H15.636V7.60917H21.0863V9.27083H15.636V14.5805H13.667ZM22.9147 2.8881C22.9147 2.28212 23.4061 1.79769 24.0138 1.79769C24.6198 1.79769 25.1129 2.28212 25.1129 2.8881C25.1129 3.48539 24.6215 3.97851 24.0138 3.97851C23.4061 3.97851 22.9147 3.48713 22.9147 2.8881ZM23.064 5.33284H24.9636V14.5805H23.064V5.33284ZM29.6551 3.14334V5.33284H31.4123V6.8365H29.6551V11.9344C29.6551 12.7348 30.0058 13.0942 30.7802 13.0942C30.973 13.0942 31.282 13.0769 31.4036 13.0508V14.5545C31.1935 14.6066 30.7716 14.643 30.3479 14.643C28.4761 14.643 27.7451 13.9311 27.7451 12.1462V6.8365H26.3995V5.33284H27.7451V3.14334H29.6551ZM33.0062 5.33284H34.8172V6.87991H34.8606C35.3624 5.82422 36.3469 5.17484 37.7707 5.17484C39.8109 5.17484 40.9794 6.47535 40.9794 8.59366V14.5805H39.0712V8.9635C39.0712 7.57444 38.4201 6.81046 37.1022 6.81046C35.7652 6.81046 34.904 7.76023 34.904 9.19269V14.5822H33.0045V5.33284H33.0062ZM50.5587 11.8632C50.2948 13.5509 48.6956 14.7559 46.5773 14.7559C43.8617 14.7559 42.2174 12.9188 42.2174 10.0001C42.2174 7.09869 43.8878 5.16442 46.4992 5.16442C49.0655 5.16442 50.6664 6.97541 50.6664 9.77957V10.4307H44.1343V10.5453C44.1343 12.1531 45.1014 13.2175 46.6225 13.2175C47.7042 13.2175 48.5046 12.6723 48.7581 11.8632H50.5587ZM44.1413 9.10414H48.7651C48.7217 7.68904 47.824 6.69586 46.4975 6.69586C45.1692 6.69586 44.2368 7.7064 44.1413 9.10414ZM55.5159 5.16616C57.669 5.16616 59.0667 6.36248 59.1292 8.06756H57.3443C57.2384 7.17161 56.5803 6.60904 55.5159 6.60904C54.488 6.60904 53.8022 7.11084 53.8022 7.84878C53.8022 8.42871 54.2241 8.82459 55.226 9.05379L56.7296 9.39584C58.6205 9.83513 59.341 10.5731 59.341 11.91C59.341 13.5978 57.7679 14.7576 55.5871 14.7576C53.2743 14.7576 51.8853 13.6238 51.7099 11.8649H53.5903C53.7657 12.832 54.4255 13.306 55.5854 13.306C56.7279 13.306 57.4311 12.832 57.4311 12.075C57.4311 11.4777 57.089 11.1252 56.0768 10.896L54.5731 10.5453C52.8142 10.1407 51.9443 9.29687 51.9443 7.95122C51.9478 6.29998 53.3889 5.16616 55.5159 5.16616ZM64.1038 5.16616C66.2568 5.16616 67.6546 6.36248 67.7171 8.06756H65.9321C65.8262 7.17161 65.1682 6.60904 64.1038 6.60904C63.0759 6.60904 62.39 7.11084 62.39 7.84878C62.39 8.42871 62.812 8.82459 63.8138 9.05379L65.3175 9.39584C67.2083 9.83513 67.9289 10.5731 67.9289 11.91C67.9289 13.5978 66.3558 14.7576 64.175 14.7576C61.8622 14.7576 60.4731 13.6238 60.2978 11.8649H62.1782C62.3536 12.832 63.0134 13.306 64.1732 13.306C65.3157 13.306 66.019 12.832 66.019 12.075C66.019 11.4777 65.6769 11.1252 64.6646 10.896L63.161 10.5453C61.4021 10.1407 60.5322 9.29687 60.5322 7.95122C60.5339 6.29998 61.9768 5.16616 64.1038 5.16616ZM74.3464 14.5927H72.6153V10.8248H69.028V9.11109H72.6153V5.345H74.3464V9.11109H77.9423V10.8248H74.3464V14.5927ZM7.63676 3.13466C8.11773 2.55299 8.44068 1.74386 8.35213 0.939941C7.66107 0.967723 6.82416 1.40007 6.32757 1.98174C5.88308 2.49569 5.4924 3.32044 5.59832 4.10873C6.36925 4.16777 7.15754 3.71633 7.63676 3.13466ZM8.33477 4.26153C7.20268 4.17819 6.24249 4.89355 5.70771 4.89355C5.16424 4.89355 4.32559 4.27889 3.43833 4.29626C2.27152 4.31362 1.19673 4.97516 0.594229 6.02043C-0.617726 8.12312 0.285163 11.2398 1.46586 12.9466C2.04406 13.7801 2.73165 14.7212 3.63627 14.6864C4.50617 14.6517 4.83607 14.1239 5.88828 14.1239C6.9405 14.1239 7.23741 14.6864 8.15766 14.6708C9.09528 14.6534 9.6891 13.82 10.2621 12.9814C10.9254 12.0142 11.198 11.0766 11.2136 11.0263C11.1928 11.0176 9.38698 10.3248 9.36962 8.24466C9.35399 6.50486 10.7899 5.66969 10.8542 5.62802C10.0381 4.42648 8.77927 4.29452 8.33477 4.26153Z" fill="white"/>
</svg>
