<svg width="68" height="15" viewBox="0 0 68 15" fill="none" xmlns="http://www.w3.org/2000/svg">
<path d="M20.7099 11.1211H15.8198L14.6469 14.5897H12.575L17.2069 1.7585H19.3579L23.9898 14.5897H21.8828L20.7099 11.1211ZM16.3272 9.52113H20.2024L18.2903 3.89235H18.2376L16.3272 9.52113ZM25.082 5.23412H26.9133V6.82529H26.9572C27.268 5.73114 28.1038 5.08309 29.2065 5.08309C29.4822 5.08309 29.7227 5.12699 29.8649 5.15509V6.94296C29.7139 6.88149 29.3768 6.83582 29.0028 6.83582C27.7667 6.83582 27.0029 7.66302 27.0029 8.98723V14.5897H25.082V5.23412ZM36.8884 8.45333C36.6935 7.45754 35.9455 6.66547 34.6936 6.66547C33.2081 6.66547 32.2318 7.90187 32.2318 9.91102C32.2318 11.9658 33.2186 13.1566 34.7129 13.1566C35.8946 13.1566 36.6689 12.5068 36.8902 11.4231H38.7391C38.5336 13.4147 36.9428 14.767 34.6936 14.767C32.0176 14.767 30.2758 12.9353 30.2758 9.91277C30.2758 6.94296 32.0176 5.06728 34.676 5.06728C37.0851 5.06728 38.5512 6.61454 38.7215 8.45509L36.8884 8.45333ZM39.7259 11.9307C39.7259 10.2939 40.9796 9.28931 43.2025 9.16461L45.7625 9.01357V8.29351C45.7625 7.25381 45.0602 6.63034 43.8873 6.63034C42.7758 6.63034 42.0822 7.16424 41.9137 8.00022H40.0999C40.207 6.31071 41.6468 5.06552 43.9575 5.06552C46.2243 5.06552 47.6729 6.26504 47.6729 8.14247V14.5897H45.8328V13.0512H45.7889C45.2463 14.0909 44.0646 14.7495 42.8373 14.7495C41.0059 14.7495 39.7259 13.6114 39.7259 11.9307ZM45.7625 11.0859V10.3483L43.4606 10.4906C42.314 10.5714 41.6643 11.0772 41.6643 11.878C41.6643 12.6964 42.3403 13.2303 43.371 13.2303C44.7125 13.2286 45.7625 12.3048 45.7625 11.0859ZM49.0232 9.91277C49.0232 6.96052 50.5876 5.08484 52.9352 5.08484C54.2767 5.08484 55.3443 5.761 55.8693 6.79192H55.9044V1.7585H57.8341V14.5897H55.9658V12.9985H55.9307C55.3794 14.0645 54.3136 14.7495 52.9528 14.7495C50.5876 14.7495 49.0232 12.8633 49.0232 9.91277ZM50.988 9.91277C50.988 11.8868 51.9396 13.1232 53.4602 13.1232C54.9351 13.1232 55.9219 11.8692 55.9219 9.91277C55.9219 7.97387 54.9351 6.70235 53.4602 6.70235C51.9396 6.70235 50.988 7.94753 50.988 9.91277ZM67.6529 11.8411C67.386 13.5482 65.7688 14.767 63.6267 14.767C60.8805 14.767 59.2177 12.9089 59.2177 9.95668C59.2177 7.02199 60.9068 5.06552 63.5477 5.06552C66.1428 5.06552 67.7617 6.89729 67.7617 9.73364V10.3922H61.1562V10.5081C61.1562 12.1344 62.1342 13.211 63.6723 13.211C64.7662 13.211 65.5739 12.6595 65.832 11.8411C65.8303 11.8411 67.6529 11.8411 67.6529 11.8411ZM61.1632 9.0487H65.8391C65.7952 7.61736 64.8874 6.61278 63.5459 6.61278C62.2044 6.61278 61.2615 7.63492 61.1632 9.0487ZM7.72703 3.01071C8.20638 2.41007 8.53297 1.60395 8.44693 0.780273C7.74459 0.815398 6.88773 1.24392 6.39082 1.84456C5.94483 2.35914 5.55152 3.19863 5.65336 3.98894C6.44174 4.05744 7.23012 3.59379 7.72703 3.01071ZM8.43816 4.14174C7.29333 4.07324 6.31883 4.79155 5.77276 4.79155C5.22493 4.79155 4.38738 4.1751 3.48311 4.19267C2.30493 4.21023 1.21102 4.87585 0.612276 5.93662C-0.618584 8.05817 0.287441 11.2054 1.48494 12.9318C2.06613 13.7871 2.76672 14.7284 3.68855 14.6933C4.56121 14.6599 4.90185 14.1278 5.96239 14.1278C7.02117 14.1278 7.32845 14.6933 8.25203 14.6757C9.20898 14.6582 9.80773 13.8204 10.3889 12.9651C11.0561 11.9904 11.3283 11.0491 11.3459 10.9981C11.3283 10.9806 9.50045 10.2798 9.48289 8.17584C9.46533 6.41432 10.9192 5.57659 10.9859 5.5239C10.1642 4.31385 8.88239 4.17686 8.43816 4.14174Z" fill="white"/>
</svg>
